<svg width="2000" height="1000" fill="none" xmlns="http://www.w3.org/2000/svg"><g clip-path="url(#clip0)" stroke="#64748B" stroke-width="1.058" stroke-miterlimit="10"><path opacity=".54" d="M-137.178 380.636C-154.748 451.441-94.481 523.24-24.2 542.72c70.295 19.511 145.253-.084 213.827-25.064 68.587-24.95 136.908-55.718 209.781-59.107 150.825-6.986 279.448 102.152 387.543 207.444 108.095 105.292 227.529 220.323 378.209 230.062 118.14 7.617 229.09-52.212 344.92-76.744 202.19-42.841 424.92 30.962 561.33 186.079"/><path opacity=".54" d="M-136.881 360.952c-17.61 70.712 42.02 142.565 111.944 162.748 6.244 1.82 12.553 3.282 18.876 4.519 64.44 12.286 132.123-5.133 194.625-27.1 12.069-4.237 24.134-8.655 36.199-13.074 56.641-20.765 113.707-41.567 173.708-44.036 19.442-.815 38.545.31 57.265 3.102C582.04 465.868 691.257 560.643 784.57 652.953a7319.473 7319.473 0 0020.455 20.211c101.6 99.991 213.365 200.85 352.215 215.051 39.72 4.056 79.04 1.652 118.66-6.372 46.77-9.453 92.98-26.355 138.5-42.452 31.09-10.985 62.03-21.617 93.52-29.625a524.88 524.88 0 0144.87-9.366c96.15-15.742 197.53-3.886 289.69 30.943 92.39 34.916 175.73 92.437 240.26 167.164"/><path opacity=".54" d="M-136.585 341.267c-17.668 70.663 41.313 142.539 110.88 163.425A214.262 214.262 0 00-6.9 509.388c64.161 12.918 131.81-3.643 194.433-24.82 12.091-4.1 24.147-8.368 36.234-12.65 56.708-20.098 113.863-40.352 173.785-42.494a305.11 305.11 0 0157.22 3.341c126.261 19.252 235 114.195 327.465 207.09 6.713 6.746 13.483 13.54 20.253 20.335 100.522 100.637 210.38 200.996 346.94 220.069 39.89 5.589 79.71 5.791 120.51-1.532 48.22-8.647 95.79-26.978 141.75-44.873 31.37-12.206 62.38-24.296 94.09-33.678 14.93-4.405 29.98-8.17 45.32-11.21 97.55-19.385 202.84-8.073 297.56 28.258 94.92 36.389 179.68 96.961 245.4 174.439"/><path opacity=".54" d="M-136.321 321.595c-17.707 70.57 40.606 142.514 109.832 164.059a205.877 205.877 0 0018.704 4.886c63.928 13.568 131.511-2.123 194.241-22.54 12.082-3.95 24.205-8.063 36.283-12.194 56.775-19.432 113.988-39.124 173.861-40.953 19.385-.607 38.435.651 57.133 3.562 126.173 19.729 234.466 114.828 326.095 208.338 6.664 6.804 13.341 13.638 20.049 20.459 99.458 101.315 207.483 201.252 341.633 225.132 40.13 7.139 80.39 9.899 122.4 3.263 49.67-7.809 98.6-27.6 144.98-47.326 31.68-13.438 62.72-27.004 94.65-37.73 15.02-5.063 30.25-9.451 45.78-13.053 98.95-23.027 208.14-12.291 305.4 25.543 97.48 37.891 183.65 101.484 250.58 181.699"/><path opacity=".54" d="M-136.038 301.881c-17.734 70.509 39.93 142.476 108.768 164.737a212.955 212.955 0 0018.602 5.076c63.663 14.231 131.199-.634 194.035-20.291 12.118-3.782 24.218-7.776 36.35-11.784 56.842-18.764 114.157-37.878 173.969-39.423a309.793 309.793 0 0157.057 3.813c126.116 20.194 233.914 115.505 324.758 209.573 6.602 6.83 13.23 13.722 19.859 20.614 98.379 101.961 204.64 201.707 336.32 230.163 40.34 8.734 81.1 14.025 124.27 8.059 51.17-6.985 101.42-28.223 148.24-49.747 31.95-14.69 63.07-29.683 95.25-41.796 15.1-5.691 30.51-10.702 46.25-14.91 100.35-26.701 213.45-16.479 313.26 22.828 100.02 39.363 187.61 106.006 255.75 188.96"/><path opacity=".54" d="M-135.742 282.197c-17.804 70.429 39.236 142.481 107.703 165.414a204.753 204.753 0 0018.532 5.253c63.398 14.895 130.886.856 193.842-18.01 12.141-3.645 24.263-7.503 36.386-11.36 56.909-18.097 114.313-36.663 174.045-37.882a312.101 312.101 0 0157.014 4.052c126.072 20.689 233.379 116.138 323.388 210.821 6.553 6.888 13.076 13.789 19.656 20.738 97.301 102.608 201.827 202.329 331.026 235.226 40.61 10.332 81.76 18.133 126.13 12.898 52.61-6.179 104.22-28.845 151.51-52.182 32.26-15.923 63.45-32.374 95.81-45.849 15.24-6.331 30.74-11.97 46.72-16.752 101.74-30.344 218.74-20.697 321.1 20.112 102.54 40.879 191.57 110.529 260.92 196.22"/><path opacity=".54" d="M-135.446 262.512c-17.831 70.367 38.528 142.455 106.67 166.078a204.023 204.023 0 0018.43 5.443c63.151 15.514 130.586 2.376 193.605-15.747 12.163-3.509 24.29-7.185 36.435-10.905 56.963-17.461 114.438-35.435 174.122-36.34a316.731 316.731 0 0156.939 4.304c126.015 21.153 232.858 116.801 322.019 212.069a5015.515 5015.515 0 0119.452 20.862c96.223 103.255 199.083 203.107 325.714 240.257 40.88 11.976 82.44 22.272 128.01 17.694 54.07-5.341 107.03-29.468 154.74-54.634 32.55-17.143 63.81-35.052 96.38-49.902 15.32-6.99 30.99-13.251 47.2-18.608 103.15-33.987 224.05-24.885 328.95 17.396 105.08 42.351 195.53 115.053 266.1 203.481"/><path opacity=".54" d="M-135.18 242.841c-17.902 70.288 37.852 142.417 105.59 166.725a213.335 213.335 0 0018.36 5.62c62.887 16.176 130.275 3.865 193.414-13.468 12.154-3.358 24.334-6.91 36.47-10.48 57.061-16.808 114.608-34.19 174.199-34.798a315.847 315.847 0 0156.863 4.556c125.958 21.616 232.325 117.433 320.65 213.317 6.412 6.985 12.824 13.97 19.249 20.985C884.76 699.2 985.927 799.377 1110.02 840.618c41.18 13.681 83.11 26.38 129.91 22.521 55.53-4.504 109.84-30.091 157.99-57.056 32.86-18.376 64.16-37.73 96.98-53.967 15.45-7.631 31.21-14.521 47.65-20.452 104.54-37.661 229.35-29.104 336.8 14.68 107.63 43.855 199.49 119.576 271.24 210.756"/><path opacity=".54" d="M-134.896 223.127c-17.942 70.195 37.144 142.391 104.557 167.39 6.023 2.244 12.125 4.162 18.259 5.81 62.652 16.826 129.943 5.399 193.22-11.187 12.19-3.191 24.361-6.593 36.52-10.026 57.127-16.14 114.763-32.975 174.275-33.256 19.265-.117 38.188 1.526 56.806 4.764 125.884 22.124 231.803 118.097 319.28 214.564a5007.504 5007.504 0 0119.06 21.141c94.036 104.562 193.55 205.156 315.099 250.351 41.48 15.417 83.81 30.506 131.75 27.33 56.98-3.697 112.65-30.714 161.24-59.478 33.13-19.595 64.49-40.439 97.53-58.05 15.54-8.259 31.47-15.802 48.1-22.295 105.94-41.304 234.63-33.278 344.65 11.965 110.17 45.326 203.47 124.129 276.42 218.016"/><path opacity=".54" d="M-134.603 203.437c-17.999 70.147 36.468 142.353 103.492 168.067a210.52 210.52 0 0018.157 6c62.375 17.459 129.632 6.889 193.015-8.937 12.212-3.054 24.406-6.319 36.586-9.615 57.195-15.473 114.889-31.747 174.352-31.714 19.244.002 38.148 1.689 56.732 5.016 125.826 22.588 231.268 118.729 317.941 215.799 6.289 7.038 12.573 14.151 18.857 21.265C877.486 674.526 975.321 775.733 1094.31 824.7c41.77 17.198 84.5 34.645 133.64 32.157 58.44-2.861 115.48-31.306 164.52-61.913 33.44-20.86 64.85-43.117 98.13-62.116 15.63-8.918 31.72-17.084 48.59-24.152 107.33-44.977 239.93-37.496 352.5 9.25 112.7 46.798 207.45 128.639 281.59 225.277"/><path opacity=".54" d="M-134.306 183.756c-18.039 70.054 35.774 142.358 102.414 168.713a203.48 203.48 0 0018.086 6.177c62.142 18.109 129.333 8.409 192.823-6.657 12.203-2.904 24.419-6.032 36.622-9.191 57.248-14.837 115.057-30.501 174.428-30.172a322.403 322.403 0 0156.657 5.267c125.769 23.053 230.734 119.363 316.572 217.048a3577.262 3577.262 0 0118.653 21.389c91.88 105.854 188.027 207.824 304.481 260.445 42.08 19.008 85.17 38.753 135.52 36.952 59.9-2.023 118.29-31.928 167.75-64.366 33.75-22.093 65.2-45.795 98.7-66.169 15.75-9.558 31.95-18.352 49.04-25.994 108.73-48.62 245.24-41.684 360.36 6.565 115.26 48.301 211.42 133.162 286.77 232.537"/><path opacity=".54" d="M-134.041 164.084c-18.097 70.006 35.067 142.333 101.38 169.378a194.86 194.86 0 0017.986 6.367c61.876 18.772 129.019 9.899 192.585-4.395 12.225-2.766 24.477-5.726 36.671-8.736 57.315-14.169 115.213-29.285 174.536-28.643 19.186.21 38.038 2.03 56.613 5.507 125.725 23.547 230.182 120.039 315.203 218.295 6.178 7.122 12.32 14.333 18.463 21.544 90.801 106.501 185.194 209.335 299.164 265.476 42.36 20.864 85.85 42.893 137.39 41.792 61.34-1.216 121.1-32.55 171-66.787 34.03-23.312 65.54-48.473 99.26-70.221 15.84-10.216 32.2-19.634 49.52-27.851 110.14-52.263 250.55-45.872 368.21 3.849 117.8 49.774 215.38 137.686 291.94 239.799"/><path opacity=".54" d="M-133.759 144.37c-18.136 69.913 34.39 142.294 100.316 170.056A203.492 203.492 0 00-15.515 321c61.612 19.435 128.72 11.42 192.393-2.114 12.261-2.599 24.49-5.44 36.707-8.312 57.382-13.503 115.338-28.058 174.612-27.102 19.151.299 38.011 2.225 56.538 5.759 125.668 24.012 229.648 120.672 313.833 219.543a2518.23 2518.23 0 0118.26 21.668c89.737 107.179 182.322 211.01 293.872 270.54 42.65 22.749 86.54 46.987 139.26 46.587 62.8-.379 123.91-33.173 174.27-69.222 34.35-24.546 65.92-51.195 99.86-74.287 15.97-10.857 32.46-20.916 49.98-29.694 111.53-55.937 255.85-50.09 376.06 1.134 120.35 51.276 219.34 142.209 297.09 247.072"/><path opacity=".54" d="M-133.463 124.681c-18.194 69.864 33.683 142.268 99.282 170.72a212.027 212.027 0 0017.826 6.765c61.365 20.054 128.408 12.909 192.188.134 12.283-2.461 24.517-5.121 36.742-7.887 57.449-12.836 115.508-26.812 174.689-25.56a329.598 329.598 0 0156.463 6.011c125.58 24.489 229.127 121.335 312.465 220.791a3640.781 3640.781 0 0118.056 21.792c88.659 107.826 179.402 212.741 288.582 275.557 42.91 24.694 87.23 51.126 141.16 51.414 64.26.459 126.72-33.796 177.51-71.674 34.61-25.797 66.26-53.874 100.42-78.34 16.07-11.485 32.7-22.153 50.44-31.537 112.92-59.58 261.15-54.278 383.91-1.582 122.88 52.749 223.29 146.732 302.25 254.333"/><path opacity=".54" d="M-133.197 105.016c-18.234 69.771 32.976 142.242 98.204 171.366a211.626 211.626 0 0017.725 6.955c61.1 20.717 128.108 14.429 191.995 2.415 12.274-2.311 24.561-4.848 36.822-7.446 57.534-12.213 115.663-25.597 174.766-24.018 19.093.507 37.901 2.565 56.405 6.218 125.523 24.953 228.593 121.968 311.126 222.026a2753.511 2753.511 0 0117.854 21.916c87.58 108.473 176.459 214.592 283.28 280.62 43.17 26.668 87.89 55.234 143 56.223 65.72 1.265 129.51-34.406 180.76-74.096 34.93-27.03 66.62-56.552 101.03-82.406 16.14-12.143 32.95-23.435 50.91-33.393 114.33-63.223 266.46-58.497 391.76-4.298 125.44 54.252 227.26 151.255 307.43 261.594"/><path opacity=".54" d="M-132.9 85.33c-18.292 69.723 32.299 142.204 97.138 172.044a203.346 203.346 0 0017.655 7.132c60.866 21.367 127.796 15.918 191.771 4.708 12.297-2.174 24.575-4.561 36.858-7.022 57.601-11.546 115.788-24.369 174.842-22.476 19.059.595 37.831 2.742 56.331 6.47 125.479 25.448 228.072 122.632 309.757 223.274a2323.596 2323.596 0 0117.663 22.071c86.503 109.119 173.42 216.559 277.975 285.651 43.37 28.67 88.57 59.374 144.89 61.05 67.17 2.102 132.31-35.028 184-76.518 35.21-28.249 66.97-59.229 101.59-86.458 16.28-12.784 33.18-24.703 51.38-35.237 115.71-66.896 271.76-62.683 399.6-7.012 127.98 55.723 231.22 155.778 312.61 268.854"/><path opacity=".54" d="M-132.619 65.614c-18.331 69.63 31.605 142.21 96.105 172.708a203.036 203.036 0 0017.553 7.323c60.602 22.03 127.483 17.407 191.566 6.957 12.332-2.006 24.633-4.256 36.907-6.567 57.668-10.878 115.957-23.123 174.919-20.934 19.036.715 37.791 2.905 56.255 6.722 125.423 25.912 227.537 123.264 308.388 224.522a1929.46 1929.46 0 0117.46 22.195c85.424 109.766 170.349 218.538 272.666 290.714 43.56 30.715 89.27 63.468 146.78 65.845 68.63 2.94 135.12-35.651 187.28-78.952 35.52-29.484 67.31-61.939 102.16-90.511 16.35-13.443 33.43-25.985 51.82-37.08 117.12-70.539 277.06-66.902 407.46-9.728 130.53 57.226 235.18 160.301 317.78 276.115"/><path opacity=".54" d="M-132.324 45.929c-18.358 69.568 30.897 142.184 95.027 173.355 5.736 2.771 11.547 5.29 17.482 7.499 60.324 22.662 127.184 18.928 191.373 9.237 12.354-1.869 24.647-3.968 36.943-6.142 57.735-10.212 116.113-21.909 174.995-19.392 19.001.803 37.752 3.068 56.212 6.961 125.365 26.375 227.003 123.896 307.018 225.77 5.816 7.388 11.552 14.846 17.257 22.318 84.347 110.413 167.168 220.602 267.357 295.746 43.72 32.804 89.95 67.607 148.62 70.654 70.08 3.746 137.94-36.274 190.52-81.405 35.8-30.703 67.65-64.617 102.75-94.577 16.49-14.083 33.69-27.266 52.31-38.936 118.51-74.213 282.37-71.09 415.31-12.444 133.06 58.698 239.13 164.824 322.92 283.389"/><path opacity=".54" d="M-132.058 26.26c-18.428 69.489 30.222 142.145 93.993 174.019a195.483 195.483 0 0017.381 7.689c60.09 23.312 126.872 20.418 191.168 11.487 12.345-1.719 24.704-3.664 36.979-5.719 57.801-9.544 116.238-20.68 175.102-17.863 18.966.892 37.695 3.277 56.137 7.213 125.291 26.884 226.482 124.56 305.649 227.018a1629.351 1629.351 0 0117.054 22.443c83.268 111.059 163.982 222.741 262.055 300.808 43.86 34.907 90.62 71.715 150.51 75.481 71.54 4.583 140.77-36.866 193.77-83.827 36.1-31.967 68.04-67.308 103.3-98.66 16.59-14.711 33.92-28.535 52.77-40.78 119.94-77.869 287.66-75.308 423.16-15.128 135.61 60.17 243.11 169.347 328.1 290.65"/><path opacity=".54" d="M-131.761 6.576c-18.456 69.427 29.514 142.119 92.928 174.696 5.652 2.917 11.428 5.524 17.279 7.88 59.826 23.975 126.573 21.938 190.975 13.767 12.368-1.583 24.718-3.377 37.059-5.277 57.855-8.908 116.407-19.435 175.193-16.291 18.943 1.011 37.654 3.44 56.048 7.434 125.234 27.348 225.917 125.206 304.311 228.253 5.674 7.485 11.331 15.015 16.894 22.584 82.191 111.706 160.691 224.888 256.744 305.839 43.93 37.038 91.3 75.855 152.39 80.277 73 5.421 143.57-37.488 197.01-86.249 36.42-33.2 68.39-69.986 103.87-102.712 16.7-15.383 34.17-29.817 53.25-42.636 121.35-81.512 292.98-79.496 431.02-17.844 138.16 61.673 247.09 173.857 333.27 297.911"/><path opacity=".54" d="M-131.479-13.14c-18.527 69.347 28.806 142.093 91.863 175.374a203.309 203.309 0 0017.209 8.056c59.578 24.594 126.26 23.427 190.752 16.06 12.403-1.414 24.762-3.102 37.094-4.852 57.922-8.241 116.563-18.22 175.269-14.749 18.909 1.099 37.584 3.617 55.974 7.686 125.176 27.812 225.395 125.869 302.941 229.501a2016.337 2016.337 0 0116.691 22.708c81.082 112.366 157.338 227.063 251.426 310.871 44 39.167 92 79.949 154.26 85.116 74.44 6.227 146.38-38.111 200.27-88.714 36.7-34.42 68.74-72.664 104.47-106.778 16.8-16.011 34.42-31.099 53.7-44.479 122.74-85.186 298.28-83.715 438.87-20.56 140.7 63.146 251.06 178.411 338.45 305.172"/><path opacity=".54" d="M-131.183-32.825C-149.736 36.46-103.04 109.26-40.367 143.183a203.345 203.345 0 0017.107 8.246c59.314 25.257 125.961 24.948 190.546 18.31 12.426-1.278 24.789-2.785 37.144-4.398 58.02-7.587 116.687-16.992 175.345-13.207 18.887 1.219 37.545 3.781 55.93 7.925 125.133 28.307 224.861 126.502 301.572 230.749a1603.479 1603.479 0 0116.488 22.832c80.017 113.043 153.936 229.294 246.13 315.933 44.025 41.354 92.675 84.088 156.125 89.912 75.91 7.065 149.2-38.734 203.53-91.136 37.01-35.653 69.08-75.373 105.04-110.831 16.88-16.638 34.64-32.367 54.15-46.322 124.14-88.828 303.55-87.889 446.71-23.275 143.26 64.648 255.03 182.934 343.63 312.432"/><path opacity=".54" d="M-130.918-52.496c-18.623 69.207 27.437 142.061 89.752 176.686a212.584 212.584 0 0017.005 8.436c59.05 25.92 125.649 26.437 190.354 20.59 12.417-1.127 24.834-2.511 37.18-3.974 58.086-6.92 116.843-15.776 175.422-11.664 18.851 1.306 37.504 3.943 55.854 8.176C559.725 174.525 658.99 272.92 734.852 377.751a1679.003 1679.003 0 0116.285 22.956c78.939 113.69 150.428 231.535 240.816 320.965 44.007 43.523 93.337 88.196 158.017 94.738 77.4 7.889 152.01-39.356 206.77-93.557 37.28-36.905 69.44-78.052 105.64-114.897 17-17.31 34.9-33.649 54.64-48.179 125.54-92.471 308.85-92.107 454.56-25.991 145.79 66.121 258.99 187.458 348.77 319.707"/><path opacity=".54" d="M-130.622-72.184c-18.65 69.145 26.729 142.036 88.718 177.35 5.533 3.151 11.172 6.037 16.935 8.613 58.815 26.571 125.349 27.958 190.148 22.84 12.439-.991 24.86-2.193 37.215-3.55 58.14-6.284 117.013-14.531 175.499-10.123 18.829 1.426 37.434 4.121 55.779 8.429 124.988 29.248 223.806 127.798 298.834 233.244a1338.571 1338.571 0 0116.095 23.112c77.86 114.336 146.906 233.745 235.516 326.027 43.933 45.75 94.023 92.336 159.873 99.547 78.83 8.696 154.81-39.978 210.04-95.992 37.59-38.137 69.79-80.729 106.21-118.949 17.1-17.937 35.14-34.886 55.09-50.022 126.93-96.145 314.16-96.295 462.41-28.706 148.31 67.636 262.95 191.98 353.94 326.967"/><path opacity=".54" d="M-130.339-91.896C-149.06-22.83-104.286 50.101-42.699 86.1a195.537 195.537 0 0016.833 8.804c58.538 27.203 125.037 29.447 189.925 25.133 12.461-.854 24.905-1.919 37.295-3.108 58.207-5.617 117.138-13.303 175.575-8.581 18.794 1.515 37.395 4.284 55.736 8.667 124.944 29.743 223.272 128.431 297.464 234.493 5.405 7.711 10.686 15.475 15.892 23.235 76.782 114.983 143.292 235.995 230.233 331.045 43.856 47.947 94.736 96.462 161.766 104.374 80.29 9.533 157.62-40.601 213.28-98.445 37.87-39.357 70.13-83.407 106.77-123.001 17.21-18.609 35.39-36.168 55.57-51.878 128.34-99.788 319.46-100.514 470.26-31.422 150.85 69.109 266.91 196.503 359.12 334.228"/><path opacity=".54" d="M-130.042-111.579c-18.748 69.003 25.345 141.97 86.605 178.66a203.63 203.63 0 0016.776 9.011c58.304 27.853 124.738 30.968 189.733 27.413 12.466-.672 24.918-1.631 37.33-2.683 58.275-4.95 117.294-12.088 175.683-7.053 18.759 1.603 37.337 4.492 55.648 8.888 124.887 30.208 222.75 129.095 296.126 235.728a1141.737 1141.737 0 0115.688 23.359c75.704 115.63 139.634 238.228 224.933 336.108 43.72 50.2 95.4 100.57 163.64 109.17 81.76 10.37 160.44-41.225 216.53-100.867 38.18-40.59 70.5-86.13 107.37-127.067 17.31-19.237 35.65-37.45 56.03-53.722 129.72-103.461 324.76-104.701 478.15-34.12 153.39 70.581 270.87 201.027 364.29 341.489"/><path opacity=".54" d="M-129.779-131.252c-18.818 68.925 24.682 141.964 85.541 179.339 5.432 3.34 11 6.404 16.675 9.201C30.477 85.804 96.862 89.745 161.963 86.95c12.488-.535 24.976-1.326 37.367-2.26 58.341-4.282 117.462-10.841 175.759-5.51 18.737 1.723 37.298 4.656 55.573 9.14 124.83 30.672 222.216 129.727 294.756 236.976a1326.384 1326.384 0 0115.499 23.514c74.626 116.277 135.931 240.442 219.619 341.139 43.574 52.423 96.074 104.709 165.504 114.01 83.2 11.176 163.25-41.847 219.77-103.288 38.47-41.811 70.86-88.808 107.94-131.12 17.4-19.864 35.87-38.718 56.48-55.565 131.13-107.104 330.08-108.888 486-36.835 155.94 72.084 274.83 205.55 369.47 348.749"/><path opacity=".54" d="M-129.482-150.938C-148.327-82.076-105.508-9.001-45.006 29.077a213.783 213.783 0 0016.573 9.391C29.359 67.603 95.679 72.416 160.9 70.412c12.51-.398 24.989-1.04 37.415-1.804 58.408-3.616 117.588-9.614 175.836-3.969 18.702 1.81 37.258 4.82 55.529 9.379C554.454 105.152 651.345 204.42 723.068 312.24c5.202 7.835 10.31 15.71 15.295 23.639 73.549 116.923 132.154 242.652 214.319 346.201 43.373 54.672 96.778 108.804 167.378 118.806 84.67 12.013 166.08-42.439 223.04-105.754 38.77-43.075 71.21-91.486 108.53-135.186 17.53-20.536 36.13-40 56.97-57.421 132.53-110.747 335.37-113.107 493.85-39.551 158.48 73.556 278.79 210.073 374.64 356.01"/><path opacity=".54" d="M-129.2-170.657c-18.916 68.783 23.267 141.912 83.429 180.649A212.156 212.156 0 00-29.27 19.56C28.26 49.358 94.544 55.027 159.86 53.752c12.532-.262 25.047-.735 37.451-1.38 58.493-2.993 117.743-8.4 175.912-2.427 18.68 1.93 37.188 4.996 55.454 9.63 124.698 31.644 221.13 131.037 292.018 239.472a1161.623 1161.623 0 0115.092 23.762c72.47 117.57 128.332 244.845 209.005 351.233 43.168 56.922 97.458 112.943 169.268 123.632 86.13 12.851 168.89-43.061 226.29-108.175 39.08-44.308 71.56-94.164 109.1-139.239 17.62-21.163 36.38-41.281 57.42-59.264 133.92-114.421 340.68-117.295 501.7-42.266 161.03 75.058 282.75 214.596 379.78 363.284"/><path opacity=".54" d="M-128.936-190.323c-18.942 68.721 22.591 141.874 82.365 181.327 5.33 3.531 10.828 6.77 16.4 9.758C27.094 31.222 93.33 37.718 158.736 37.247c12.537-.08 25.061-.447 37.531-.938 58.56-2.326 117.912-7.154 175.989-.885 18.644 2.019 37.148 5.16 55.379 9.883 124.641 32.107 220.609 131.7 290.648 240.719a1007.959 1007.959 0 0114.889 23.887c71.392 118.216 124.466 247.02 203.705 356.295C979.763 725.375 1035 783.259 1108 794.649c87.57 13.658 171.69-43.684 229.53-110.597 39.36-45.528 71.91-96.842 109.65-143.322 17.75-21.804 36.61-42.55 57.88-61.107 135.32-118.064 345.98-121.513 509.55-44.982s286.71 219.119 384.95 370.545"/><path opacity=".54" d="M-128.638-210.011c-18.982 68.629 21.884 141.848 81.33 181.991 5.313 3.576 10.745 6.917 16.331 9.936 57.03 31.11 123.202 38.476 188.7 38.734 12.559.057 25.105-.174 37.566-.514 58.627-1.66 118.038-5.926 176.066.657 18.64 2.094 37.077 5.336 55.322 10.09 124.584 32.572 220.074 132.333 289.31 241.954 5.042 7.977 9.917 15.989 14.699 24.042 70.327 118.894 120.586 249.164 198.391 361.327 42.606 61.411 98.803 121.19 173.013 133.267 89.03 14.495 174.51-44.307 232.78-113.019 39.67-46.761 72.25-99.551 110.25-147.387 17.83-22.463 36.86-43.832 58.36-62.964 136.72-121.707 351.29-125.701 517.4-47.698 166.12 78.034 290.7 223.629 390.13 377.806"/><path opacity=".54" d="M-128.342-229.697C-149.078-155.004-99.51-74.758-31.847-36.903 35.803.922 116.728 5.35 194.262 4.022c77.534-1.329 156.501-7.339 231.42 12.528 133.556 35.452 233.2 147.857 302.405 267.38 69.25 119.541 116.632 251.305 193.078 366.359 42.294 63.67 99.505 125.285 174.895 138.063 90.49 15.332 177.32-44.929 236.04-115.485 58.73-70.555 101.68-154.541 169.63-216.247 138.11-125.38 356.59-129.919 525.25-50.413 168.66 79.506 294.66 228.152 395.3 385.067"/></g><defs><clipPath id="clip0"><path fill="#fff" transform="matrix(-1 0 0 1 2000 0)" d="M0 0h2000v1000H0z"/></clipPath></defs></svg>